<svg xmlns="http://www.w3.org/2000/svg" viewBox="0 0 955.6 193.27"><defs><style>.cls-1{fill:#ec1616;}.cls-2{fill:#b2acb9;}</style></defs><g id="Слой_2" data-name="Слой 2"><g id="Слой_1-2" data-name="Слой 1"><polygon class="cls-1" points="103.14 193.27 51.57 146.84 54.92 143.12 51.57 146.84 0 100.4 49.78 45.11 62.11 56.22 55.42 63.65 50.52 59.24 14.12 99.66 54.55 136.06 66.72 122.55 74.15 129.24 61.98 142.75 102.4 179.15 142.15 135.01 217.48 50.55 177.05 14.15 101.74 98.59 98.01 95.27 101.72 98.61 87.94 113.93 80.5 107.23 90.95 95.64 76.41 82.55 74.5 55.55 84.48 54.84 86.1 77.82 97.62 88.19 176.28 0 231.56 49.78 149.6 141.69 103.14 193.27"/><path class="cls-1" d="M338.79,107.05a8.72,8.72,0,0,1-6.58,3H277.62V49.34h54.59a8.45,8.45,0,0,1,6.58,3,10.14,10.14,0,0,1,2.73,7.15V99.9A10.12,10.12,0,0,1,338.79,107.05ZM289.25,99.9h37.84a2.67,2.67,0,0,0,2-.89,2.8,2.8,0,0,0,.82-2.14V62.49a3.17,3.17,0,0,0-.82-2.15,2.41,2.41,0,0,0-2-.89H289.25Z"/><path class="cls-1" d="M360.52,110V49.34h11.61V110Z"/><path class="cls-1" d="M437.15,105.14a7.65,7.65,0,0,1-2.55,3.52,6.39,6.39,0,0,1-4,1.36H414.71a6.63,6.63,0,0,1-4-1.36,7.07,7.07,0,0,1-2.55-3.52l-19.59-55.8H401L418.81,99.9h7.72l17.76-50.56h12.45Z"/><path class="cls-1" d="M475.47,52.29a8.64,8.64,0,0,1,6.59-2.95h43.65a8.61,8.61,0,0,1,6.58,3A10.14,10.14,0,0,1,535,59.45V99.9a10.12,10.12,0,0,1-2.73,7.15,8.44,8.44,0,0,1-6.58,3H482.06a8.59,8.59,0,0,1-6.58-3,10.12,10.12,0,0,1-2.73-7.15V59.45A10.21,10.21,0,0,1,475.47,52.29ZM522.57,99a3,3,0,0,0,.81-2.14V62.49a3.13,3.13,0,0,0-.81-2.15,2.59,2.59,0,0,0-2-.89h-33.4a2.54,2.54,0,0,0-2,.89,3,3,0,0,0-.82,2.15V96.87a3.08,3.08,0,0,0,.82,2.14,2.5,2.5,0,0,0,2,.89h33.4A2.42,2.42,0,0,0,522.57,99Z"/><path class="cls-1" d="M599.24,99a2.54,2.54,0,0,0,2,.88h35.38V84.74H610.06V74.62h38.17v27.81a7.47,7.47,0,0,1-2.05,5.36,6.46,6.46,0,0,1-4.94,2.23H596.09a8.63,8.63,0,0,1-6.59-3,10.18,10.18,0,0,1-2.72-7.16V59.45a10.21,10.21,0,0,1,2.72-7.16,8.62,8.62,0,0,1,6.59-2.95H647.4V59.45H601.21a2.55,2.55,0,0,0-2,.89,3,3,0,0,0-.82,2.15V96.87A3,3,0,0,0,599.24,99Z"/><path class="cls-1" d="M718.76,59.45H681.28a2.57,2.57,0,0,0-2,.89,3,3,0,0,0-.82,2.15V110H666.85V59.45a10.17,10.17,0,0,1,2.72-7.16,8.61,8.61,0,0,1,6.59-2.95h42.6Z"/><path class="cls-1" d="M738.24,52.29a8.61,8.61,0,0,1,6.59-2.95h43.64a8.59,8.59,0,0,1,6.58,3,10.14,10.14,0,0,1,2.73,7.15V99.9a10.12,10.12,0,0,1-2.73,7.15,8.42,8.42,0,0,1-6.58,3H744.83a8.59,8.59,0,0,1-6.59-3,10.15,10.15,0,0,1-2.72-7.15V59.45A10.17,10.17,0,0,1,738.24,52.29ZM785.33,99a3,3,0,0,0,.82-2.14V62.49a3.14,3.14,0,0,0-.82-2.15,2.59,2.59,0,0,0-2-.89H750a2.55,2.55,0,0,0-2,.89,3,3,0,0,0-.82,2.15V96.87A3.08,3.08,0,0,0,748,99a2.52,2.52,0,0,0,2,.89h33.4A2.42,2.42,0,0,0,785.33,99Z"/><path class="cls-1" d="M825.71,110a8.63,8.63,0,0,1-6.59-3,10.18,10.18,0,0,1-2.72-7.16V49.34H828V96.87a3,3,0,0,0,.82,2.15,2.54,2.54,0,0,0,2,.88h32.32V49.34h11.64V110Z"/><path class="cls-1" d="M948.62,49.34a6.5,6.5,0,0,1,4.94,2.22,7.66,7.66,0,0,1,2,5.36V77.15a7.56,7.56,0,0,1-2,5.36,6.56,6.56,0,0,1-4.94,2.22H905.8V110H894.16V49.34ZM944,59.45H905.8V74.62H944Z"/><path class="cls-2" d="M309.83,153.37v29.68h-6.18V170.68H283.81v12.37h-6.19V153.37h6.19v12.36h19.84V153.37Z"/><path class="cls-2" d="M316.29,154.46a3.53,3.53,0,0,1,2.62-1.09h24.51a3.7,3.7,0,0,1,3.71,3.71V167a3.7,3.7,0,0,1-3.71,3.71h-22v7.42H346.7v5H318.91a3.72,3.72,0,0,1-3.71-3.71V157.08A3.55,3.55,0,0,1,316.29,154.46ZM341,158.32H321.38v7.41H341Z"/><path class="cls-2" d="M389.1,179.17a3.61,3.61,0,0,1,1.11,2.65V188H384v-4.94H355.74V188h-6.22v-6.17a3.75,3.75,0,0,1,1.11-2.65,3.49,3.49,0,0,1,2.61-1.07V158.32a5,5,0,0,1,4.95-4.95h28.3V178.1A3.55,3.55,0,0,1,389.1,179.17Zm-8.79-1.07V158.32H360.92a1.46,1.46,0,0,0-1.07.43,1.4,1.4,0,0,0-.43,1V178.1Z"/><path class="cls-2" d="M424.56,154.45a3.59,3.59,0,0,1,1.09,2.63v7.42a3.72,3.72,0,0,1-3.62,3.71,3.57,3.57,0,0,1,2.56,1.12,3.5,3.5,0,0,1,1.06,2.59v7.42a3.72,3.72,0,0,1-3.71,3.71H393V153.37h28.94A3.58,3.58,0,0,1,424.56,154.45Zm-5.46,10.92a1.16,1.16,0,0,0,.37-.87v-6.18H399.18v7.42h19.05A1.16,1.16,0,0,0,419.1,165.37Zm.37,6.55a1.12,1.12,0,0,0-.37-.88,1.19,1.19,0,0,0-.87-.36H399.18v7.42h20.29Z"/><path class="cls-2" d="M435.76,183.05a5,5,0,0,1-4.95-5V153.37H437v23.25a1.49,1.49,0,0,0,1.49,1.48h17.17V153.37h6.19v29.68Z"/><path class="cls-2" d="M505.43,168.21l5.66,14.84h-6.61l-4.73-12.37h-8v12.37h-6.16V170.68h-8l-4.72,12.37h-6.62l5.66-14.84-5.66-14.84h6.62l4.72,12.37h8V153.37h6.16v12.37h8l4.73-12.37h6.61Z"/><path class="cls-2" d="M520.22,183.05a4.93,4.93,0,0,1-5-5V153.37h6.18v23.25a1.49,1.49,0,0,0,1.49,1.48h17.17V153.37h6.18v29.68Z"/><path class="cls-2" d="M588.62,183.05h-6.18V161.88L575,176.12a3.82,3.82,0,0,1-1.34,1.43,3.54,3.54,0,0,1-1.94.55h-3a3.54,3.54,0,0,1-1.94-.55,3.82,3.82,0,0,1-1.34-1.43L558,161.88v21.17h-6.18V153.37h8.47l9.93,19.07,9.9-19.07h8.47Z"/><path class="cls-2" d="M595.43,154.81a4.77,4.77,0,0,1,3.5-1.44h23.19a5,5,0,0,1,5,4.95V178.1a4.78,4.78,0,0,1-1.45,3.5,4.66,4.66,0,0,1-3.5,1.45H598.93a5,5,0,0,1-4.95-5V158.32A4.8,4.8,0,0,1,595.43,154.81Zm25,22.86a1.43,1.43,0,0,0,.43-1V159.8a1.46,1.46,0,0,0-.43-1.05,1.41,1.41,0,0,0-1.05-.43H601.65a1.37,1.37,0,0,0-1,.43,1.4,1.4,0,0,0-.44,1.05v16.82a1.47,1.47,0,0,0,.44,1,1.37,1.37,0,0,0,1,.43H619.4A1.34,1.34,0,0,0,620.45,177.67Z"/><path class="cls-2" d="M638.42,178.1H664v5H635.94a3.7,3.7,0,0,1-3.71-3.71V157.08a3.72,3.72,0,0,1,3.71-3.71H664v4.95H638.42Z"/><path class="cls-2" d="M700.24,158.32H687v24.73h-6.18V158.32H667.59v-4.95h32.65Z"/><path class="cls-2" d="M731.81,165.74a3.63,3.63,0,0,1,2.62,1.08,3.54,3.54,0,0,1,1.09,2.63v9.89a3.72,3.72,0,0,1-3.71,3.71h-27.2V153.37h6.19v12.37Zm-2.48,4.94H710.8v7.42h18.53Z"/></g></g></svg>
