<?xml version="1.0" encoding="utf-8"?><svg viewBox="0 0 44 44" xmlns="http://www.w3.org/2000/svg" xmlns:xlink="http://www.w3.org/1999/xlink"><style>:root>svg{display:none}:root>svg:target{display:block}</style><svg viewBox="0 0 24 24" id="arrow" xmlns="http://www.w3.org/2000/svg"><path clip-rule="evenodd" d="M12 21.25a9.25 9.25 0 100-18.5 9.25 9.25 0 000 18.5z"/><path d="M10.558 15.471L14.044 12l-3.486-3.471"/></svg><svg viewBox="0 0 34 34" id="call" xmlns="http://www.w3.org/2000/svg"><path d="M20.333 3.542a11.29 11.29 0 019.974 9.962M20.333 8.56a6.27 6.27 0 014.959 4.96"/><path clip-rule="evenodd" d="M15.628 17.67c5.651 5.649 6.933-.887 10.531 2.708 3.469 3.468 5.464 4.163 1.068 8.557-.55.443-4.049 5.765-16.34-6.524C-1.408 10.121 3.911 6.62 4.354 6.07c4.405-4.406 5.09-2.4 8.559 1.067 3.596 3.597-2.937 4.884 2.714 10.533z"/></svg><svg viewBox="0 0 24 24" id="check" xmlns="http://www.w3.org/2000/svg"><path d="M21.6 12a9.6 9.6 0 11-19.2 0A9.6 9.6 0 0112 2.4c1.506 0 2.931.347 4.2.965M19.8 6l-8.4 8.4L9 12"/></svg><svg viewBox="0 0 44 44" id="download" xmlns="http://www.w3.org/2000/svg"><path clip-rule="evenodd" d="M27.017 5.064H14.822A7.004 7.004 0 007.793 11.9v19.684a6.979 6.979 0 006.827 7.127c.068 0 .136.002.202 0h14.645a7.09 7.09 0 006.838-7.127V14.736l-9.288-9.672z"/><path d="M26.537 5.042v5.333a4.721 4.721 0 004.71 4.721h5.05M21.343 29.242V18.166m-4.3 6.757l4.3 4.318 4.298-4.318"/></svg><svg viewBox="0 0 24 24" id="edit" xmlns="http://www.w3.org/2000/svg"><path fill-rule="evenodd" clip-rule="evenodd" d="M20.75 21.94h-7.252a.75.75 0 010-1.5h7.253a.75.75 0 010 1.5z"/><mask id="ea" maskUnits="userSpaceOnUse" x="2" y="3" width="18" height="19"><path fill-rule="evenodd" clip-rule="evenodd" d="M2 3h17.18v18.94H2V3z"/></mask><g mask="url(#ea)"><path fill-rule="evenodd" clip-rule="evenodd" d="M13.11 5.017L3.697 16.792a.879.879 0 00-.171.755l.68 2.885 3.04-.038a.949.949 0 00.733-.352c3.217-4.025 9.35-11.7 9.524-11.924a1.36 1.36 0 00.142-1.004 1.411 1.411 0 00-.652-.887 328.898 328.898 0 01-1.808-1.398 1.497 1.497 0 00-2.073.188zM3.615 21.94a.75.75 0 01-.73-.577l-.82-3.471a2.371 2.371 0 01.46-2.037l9.42-11.782.012-.013c1.033-1.235 2.9-1.417 4.16-.406l1.724 1.339c.608.362 1.083 1.009 1.263 1.775a2.86 2.86 0 01-.368 2.2c-.031.05-.058.092-9.586 12.012a2.447 2.447 0 01-1.886.914l-3.64.046h-.01z"/></g><path fill-rule="evenodd" clip-rule="evenodd" d="M16.223 11.685a.753.753 0 01-.457-.155l-5.452-4.188a.75.75 0 01.914-1.19l5.453 4.188a.75.75 0 01-.458 1.345z"/></svg><svg viewBox="0 0 24 24" id="send" xmlns="http://www.w3.org/2000/svg"><path d="M15.832 8.175l-5.723 5.784-6.51-4.071c-.932-.584-.738-2 .317-2.31L19.37 3.054c.966-.283 1.862.62 1.575 1.589l-4.573 15.445c-.313 1.056-1.722 1.245-2.3.308l-3.967-6.435"/></svg><svg viewBox="0 0 36 33" id="tl" xmlns="http://www.w3.org/2000/svg"><path d="M33.335.003c-.465.022-.903.16-1.293.315h-.005c-.395.16-2.272.966-5.123 2.186L16.689 6.9c-7.336 3.15-14.547 6.254-14.547 6.254l.087-.033s-.498.166-1.018.53c-.265.177-.557.42-.811.8-.254.381-.46.967-.384 1.569.124 1.02.774 1.634 1.239 1.97.47.343.92.503.92.503h.01l6.763 2.324c.303.994 2.06 6.89 2.483 8.249.249.811.492 1.32.795 1.706.146.198.32.364.525.496.08.05.167.089.254.122a.227.227 0 00.087.027l-.07-.016c.02.006.037.022.053.028.054.016.092.022.163.033 1.07.33 1.93-.348 1.93-.348l.05-.039 3.992-3.71 6.692 5.24.152.066c1.395.624 2.807.276 3.554-.337.752-.618 1.044-1.408 1.044-1.408l.049-.127 5.172-27.036c.146-.668.183-1.292.021-1.9-.162-.607-.579-1.175-1.082-1.479a2.55 2.55 0 00-1.477-.38zm-.14 2.899c-.006.088.01.077-.028.248v.017L28.044 29.92c-.021.039-.06.122-.162.205-.108.088-.195.143-.644-.039l-8.185-6.404-4.944 4.599 1.038-6.77L28.52 8.793c.552-.524.368-.634.368-.634.038-.64-.833-.188-.833-.188L11.193 18.63l-.006-.027-8.082-2.777v-.005c-.005 0-.016-.006-.022-.006.006 0 .044-.016.044-.016l.043-.022.043-.017 14.553-6.255L27.985 5.11c2.846-1.22 4.95-2.115 5.069-2.164.113-.044.06-.044.14-.044z"/></svg><svg viewBox="0 0 36 36" id="wt" xmlns="http://www.w3.org/2000/svg"><path d="M0 36l2.543-9.244a17.736 17.736 0 01-2.392-8.92C.155 8.004 8.196 0 18.075 0c4.795.002 9.295 1.86 12.68 5.232A17.693 17.693 0 0136 17.853c-.005 9.835-8.045 17.838-17.925 17.838a18.006 18.006 0 01-8.572-2.172L0 36zm9.943-5.71c2.526 1.492 4.937 2.386 8.126 2.388 8.211 0 14.9-6.651 14.905-14.828.003-8.193-6.654-14.835-14.893-14.838-8.217 0-14.9 6.651-14.904 14.826-.001 3.337.981 5.836 2.632 8.451l-1.506 5.472 5.64-1.471zm17.162-8.197c-.112-.186-.41-.296-.86-.52-.447-.224-2.649-1.302-3.06-1.45-.41-.149-.709-.224-1.009.223-.298.445-1.157 1.45-1.418 1.747-.26.297-.523.335-.97.111-.448-.223-1.892-.692-3.603-2.212-1.33-1.182-2.23-2.642-2.491-3.088-.26-.446-.027-.688.196-.91.202-.199.448-.52.672-.781.228-.258.302-.444.452-.742.15-.297.076-.559-.037-.782-.113-.222-1.009-2.416-1.38-3.309-.366-.869-.735-.752-1.01-.765L11.73 9.6c-.299 0-.784.111-1.194.558-.41.447-1.567 1.524-1.567 3.719 0 2.194 1.605 4.313 1.828 4.61.224.298 3.157 4.8 7.65 6.731 1.069.459 1.904.733 2.553.939 1.073.339 2.05.291 2.822.177.86-.128 2.65-1.078 3.023-2.12.374-1.042.374-1.934.26-2.12z"/></svg></svg>