<svg width="24" height="24" viewBox="0 0 24 24" fill="none" xmlns="http://www.w3.org/2000/svg">
<path fill-rule="evenodd" clip-rule="evenodd" d="M20.7508 21.9395H13.4978C13.0838 21.9395 12.7478 21.6035 12.7478 21.1895C12.7478 20.7755 13.0838 20.4395 13.4978 20.4395H20.7508C21.1648 20.4395 21.5008 20.7755 21.5008 21.1895C21.5008 21.6035 21.1648 21.9395 20.7508 21.9395Z" fill="black"/>
<mask id="mask0_70_405" style="mask-type:luminance" maskUnits="userSpaceOnUse" x="2" y="3" width="18" height="19">
<path fill-rule="evenodd" clip-rule="evenodd" d="M2.00031 3H19.1809V21.9395H2.00031V3Z" fill="white"/>
</mask>
<g mask="url(#mask0_70_405)">
<path fill-rule="evenodd" clip-rule="evenodd" d="M13.1106 5.01664L3.69558 16.7916C3.52458 17.0056 3.46158 17.2816 3.52458 17.5466L4.20558 20.4316L7.24458 20.3936C7.53358 20.3906 7.80058 20.2616 7.97758 20.0416C11.1946 16.0166 17.3276 8.34264 17.5016 8.11764C17.6656 7.85164 17.7296 7.47564 17.6436 7.11364C17.5556 6.74264 17.3246 6.42764 16.9916 6.22664C16.9206 6.17764 15.2356 4.86964 15.1836 4.82864C14.5496 4.32064 13.6246 4.40864 13.1106 5.01664ZM3.61358 21.9396C3.26658 21.9396 2.96458 21.7016 2.88358 21.3626L2.06458 17.8916C1.89558 17.1726 2.06358 16.4306 2.52458 15.8546L11.9446 4.07264C11.9486 4.06864 11.9516 4.06364 11.9556 4.05964C12.9886 2.82464 14.8566 2.64264 16.1166 3.65364C16.1666 3.69264 17.8396 4.99264 17.8396 4.99264C18.4476 5.35464 18.9226 6.00164 19.1026 6.76764C19.2816 7.52564 19.1516 8.30764 18.7346 8.96864C18.7036 9.01764 18.6766 9.05964 9.14858 20.9796C8.68958 21.5516 8.00158 21.8846 7.26258 21.8936L3.62358 21.9396H3.61358Z" fill="black"/>
</g>
<path fill-rule="evenodd" clip-rule="evenodd" d="M16.2234 11.6849C16.0634 11.6849 15.9034 11.6339 15.7664 11.5299L10.3144 7.34187C9.98636 7.08987 9.92436 6.61987 10.1764 6.28987C10.4294 5.96187 10.8994 5.90087 11.2284 6.15287L16.6814 10.3399C17.0094 10.5919 17.0714 11.0629 16.8184 11.3919C16.6714 11.5839 16.4484 11.6849 16.2234 11.6849Z" fill="black"/>
</svg>
