<svg width="36" height="33" viewBox="0 0 36 33" fill="none" xmlns="http://www.w3.org/2000/svg">
<path d="M33.3353 0.00307388C32.87 0.0251578 32.4318 0.163182 32.0423 0.31777H32.0369C31.642 0.477878 29.7647 1.28394 26.9137 2.50408C24.0628 3.72974 20.3624 5.31979 16.6891 6.89879C9.35334 10.0513 2.14199 13.1541 2.14199 13.1541L2.22855 13.1209C2.22855 13.1209 1.73084 13.2866 1.21149 13.651C0.946411 13.8276 0.654277 14.0706 0.400015 14.4515C0.145751 14.8325 -0.0598244 15.4177 0.0159144 16.0195C0.140342 17.0409 0.789525 17.6537 1.25477 17.9905C1.72543 18.3328 2.17445 18.4929 2.17445 18.4929H2.18527L8.9476 20.8172C9.25055 21.811 11.0088 27.7074 11.4307 29.0656C11.6796 29.8772 11.923 30.3851 12.226 30.7716C12.372 30.9703 12.5452 31.1359 12.7507 31.2684C12.8319 31.3181 12.9184 31.3568 13.005 31.3899C13.032 31.4065 13.0591 31.412 13.0916 31.4175L13.0212 31.4009C13.0429 31.4065 13.0591 31.423 13.0753 31.4286C13.1294 31.4451 13.1673 31.4506 13.2376 31.4617C14.3088 31.7929 15.1689 31.1139 15.1689 31.1139L15.2176 31.0752L19.2101 27.3651L25.9021 32.6045L26.0536 32.6708C27.4493 33.2946 28.8613 32.9468 29.6079 32.334C30.3598 31.7156 30.652 30.9261 30.652 30.9261L30.7007 30.7992L35.8725 3.76287C36.0185 3.09483 36.0564 2.47096 35.8941 1.86365C35.7318 1.25634 35.3153 0.687677 34.8121 0.384022C34.3036 0.0748464 33.8005 -0.0190101 33.3353 0.00307388ZM33.1946 2.90159C33.1892 2.98993 33.2054 2.97889 33.1675 3.15004V3.1666L28.0444 29.9213C28.0228 29.96 27.9849 30.0428 27.8821 30.1256C27.7739 30.2139 27.6874 30.2691 27.2383 30.087L19.0532 23.6826L14.1086 28.2816L15.1473 21.5129C15.1473 21.5129 27.9687 9.31699 28.5205 8.79249C29.0723 8.268 28.8883 8.15758 28.8883 8.15758C28.9262 7.51714 28.0552 7.96986 28.0552 7.96986L11.1927 18.6309L11.1873 18.6033L3.10495 15.8262V15.8207C3.09953 15.8207 3.08872 15.8152 3.08331 15.8152C3.08872 15.8152 3.12659 15.7986 3.12659 15.7986L3.16986 15.7765L3.21314 15.76C3.21314 15.76 10.4299 12.6572 17.7657 9.5047C21.439 7.9257 25.1393 6.33565 27.9849 5.10999C30.8305 3.88985 32.9349 2.99545 33.0539 2.94576C33.1675 2.90159 33.1135 2.90159 33.1946 2.90159Z" fill="black"/>
</svg>
